<?xml version="1.0" standalone="no"?>
<!DOCTYPE svg PUBLIC "-//W3C//DTD SVG 20010904//EN"
 "http://www.w3.org/TR/2001/REC-SVG-20010904/DTD/svg10.dtd">
<svg version="1.0" xmlns="http://www.w3.org/2000/svg"
 width="512.000000pt" height="512.000000pt" viewBox="0 0 512.000000 512.000000"
 preserveAspectRatio="xMidYMid meet">
<metadata>
Created by potrace 1.14, written by Peter Selinger 2001-2017
</metadata>
<g transform="translate(0.000000,512.000000) scale(0.100000,-0.100000)"
fill="#000000" stroke="none">
<path d="M405 4982 c-119 -41 -196 -109 -249 -221 l-31 -66 -2 -2112 -3 -2113
22 -57 c26 -72 65 -130 115 -172 49 -41 53 -44 83 -57 14 -6 39 -18 55 -25 25
-12 375 -14 2136 -17 2264 -2 2126 -5 2236 44 61 27 131 103 171 182 l37 76 2
2115 2 2116 -31 75 c-53 126 -162 216 -288 240 -35 7 -777 10 -2129 10 -1941
-1 -2079 -2 -2126 -18z"/>
</g>
</svg>
