<?xml version="1.0" encoding="utf-8"?>
<!-- Generator: Adobe Illustrator 22.0.1, SVG Export Plug-In . SVG Version: 6.00 Build 0)  -->
<svg version="1.1" id="Layer_1" xmlns="http://www.w3.org/2000/svg" xmlns:xlink="http://www.w3.org/1999/xlink" x="0px" y="0px"
	 viewBox="0 0 184.6 130.4" style="enable-background:new 0 0 184.6 130.4;" xml:space="preserve">
<style type="text/css">
	.st0{fill:#FFFFFF;}
	.st1{fill:none;stroke:#414042;stroke-width:3.29;stroke-linejoin:round;}
</style>
<title>Icon_Ensico</title>
<path class="st0" d="M55.1,108.5c-12.1,0-21.9,9.8-21.9,21.9v0h21.9V108.5z"/>
<rect x="5.6" y="5.6" transform="matrix(0.7071 -0.7071 0.7071 0.7071 -7.8939 19.0592)" class="st0" width="27" height="27"/>
<path class="st0" d="M184.6,54.4c0,15.6-12.7,28.3-28.3,28.3S128,70.1,128,54.4c0-15.6,12.7-28.3,28.3-28.3h0
	C171.9,26.1,184.6,38.8,184.6,54.4"/>
<path class="st1" d="M7.4,100.7v1.4c0,16.4,13.6,21.4,41,15.9c18.7-3.7,36.2-6,39.6,8.3c3.5-14.3,20.8-12,39.6-8.3
	c27.4,5.5,41,0.5,41-15.9v-1.4"/>
<path class="st1" d="M154.4,18.7c0,0-11.2,0.3-33.8-4.2c-15.5-3-29.8-4.9-32.6,6.8c-2.8-11.8-17.3-9.9-32.6-6.8
	c-22.6,4.6-33.8,4.2-33.8,4.2v84.6c0,0,11.2,2.5,33.8-2c15.4-3,29.8-4.9,32.6,6.8c2.9-11.8,17.1-9.9,32.6-6.8
	c22.6,4.5,33.8,2,33.8,2V18.7z"/>
<line class="st1" x1="88.1" y1="21.3" x2="88.1" y2="108.1"/>
</svg>
