<?xml version="1.0" standalone="no"?>
<!DOCTYPE svg PUBLIC "-//W3C//DTD SVG 20010904//EN"
 "http://www.w3.org/TR/2001/REC-SVG-20010904/DTD/svg10.dtd">
<svg version="1.0" xmlns="http://www.w3.org/2000/svg"
 width="2048.000000pt" height="2048.000000pt" viewBox="0 0 2048.000000 2048.000000"
 preserveAspectRatio="xMidYMid meet">
<metadata>
Created by potrace 1.14, written by Peter Selinger 2001-2017
</metadata>
<g transform="translate(0.000000,2048.000000) scale(0.100000,-0.100000)"
fill="#000000" stroke="none">
<path d="M6220 15145 c-153 -23 -244 -46 -365 -92 -104 -40 -295 -133 -295
-145 0 -4 -5 -8 -11 -8 -15 0 -129 -81 -203 -144 -197 -168 -343 -359 -450
-588 -38 -81 -84 -197 -90 -232 -2 -6 -8 -31 -15 -55 -18 -65 -41 -187 -49
-266 -9 -89 -8 -6669 1 -6750 13 -122 23 -174 54 -285 43 -155 121 -336 187
-433 14 -21 26 -40 26 -43 0 -3 31 -47 69 -97 184 -244 425 -432 704 -551 49
-21 94 -39 100 -41 7 -1 19 -5 27 -8 42 -16 125 -39 215 -58 98 -22 118 -23
855 -26 811 -3 821 -3 941 48 198 83 343 247 403 453 9 30 16 59 15 63 -1 4 1
16 6 26 4 10 5 64 2 120 -16 313 -217 562 -517 642 -58 16 -133 18 -740 20
-371 1 -690 5 -709 9 -103 24 -188 93 -237 191 l-29 60 0 3280 c0 3140 1 3282
18 3327 35 89 120 172 212 203 45 16 115 18 740 20 380 2 701 5 715 9 14 3 39
9 55 12 17 3 35 9 40 12 6 4 15 7 22 8 30 5 124 55 178 97 129 97 215 227 256
385 21 84 26 233 8 296 -6 21 -12 47 -14 56 -8 40 -53 138 -88 191 -100 152
-255 256 -437 295 -90 19 -1472 18 -1600 -1z"/>
<path d="M12671 15149 c-142 -28 -282 -104 -366 -197 -16 -19 -40 -44 -51 -57
-12 -13 -36 -48 -53 -79 -104 -182 -119 -419 -39 -610 93 -221 303 -382 538
-414 30 -5 339 -8 685 -7 347 0 656 -3 688 -7 113 -15 217 -92 266 -198 l26
-55 0 -3285 0 -3285 -26 -56 c-44 -93 -141 -172 -239 -194 -19 -5 -336 -9
-705 -10 -474 -1 -685 -5 -720 -14 -201 -47 -367 -173 -462 -351 -54 -101 -73
-172 -78 -305 -14 -324 221 -622 544 -691 53 -11 203 -14 791 -13 657 1 735 3
830 20 436 76 788 282 1075 630 18 21 76 106 125 179 110 169 209 460 237 698
10 87 10 6684 0 6782 -31 298 -159 614 -345 855 -138 178 -326 345 -492 437
-25 14 -63 35 -84 47 -21 12 -77 38 -124 58 -113 46 -192 72 -277 88 -11 3
-38 9 -60 14 -22 5 -56 13 -75 17 -51 11 -1557 14 -1609 3z"/>
<path d="M10218 13486 c-1 -2 -100 -6 -219 -9 -118 -4 -222 -8 -230 -11 -8 -3
-43 -7 -79 -11 -74 -7 -126 -14 -156 -20 -12 -3 -39 -7 -60 -11 -248 -38 -599
-165 -809 -294 -438 -268 -732 -718 -792 -1210 -10 -82 -10 -312 -1 -407 50
-493 365 -969 823 -1245 143 -86 344 -177 578 -262 124 -45 491 -155 532 -160
12 -1 26 -5 31 -9 6 -3 24 -9 41 -11 16 -3 72 -17 124 -30 127 -33 499 -128
513 -131 6 -1 18 -5 26 -8 8 -3 89 -26 180 -52 90 -25 167 -49 170 -53 3 -4
13 -8 23 -10 38 -7 155 -58 240 -106 219 -123 325 -291 331 -520 6 -236 -90
-431 -305 -622 -145 -127 -394 -220 -678 -251 -127 -15 -439 -8 -551 10 -133
23 -282 68 -385 118 -87 41 -225 133 -225 149 0 6 -6 10 -12 10 -21 0 -135
128 -194 216 -62 93 -154 279 -154 312 0 12 -3 22 -8 22 -4 0 -18 24 -31 52
-51 112 -204 228 -336 257 -46 9 -246 8 -305 -3 -14 -3 -52 -7 -85 -10 -80 -8
-108 -13 -158 -33 -116 -46 -218 -141 -272 -256 -36 -76 -59 -188 -50 -247 3
-19 7 -51 10 -70 10 -78 148 -429 176 -445 5 -4 9 -13 9 -21 0 -8 26 -56 57
-107 253 -413 605 -699 1058 -860 367 -130 705 -181 1195 -181 373 0 657 28
930 90 109 25 273 73 341 100 35 14 74 26 86 26 13 0 20 4 17 9 -3 5 0 9 6 9
37 0 293 144 410 230 406 302 679 795 728 1315 17 180 2 443 -35 625 -20 98
-19 95 -41 170 -39 133 -149 374 -179 393 -7 4 -13 12 -13 18 0 19 -116 166
-200 253 -257 266 -561 434 -1095 604 -136 44 -414 124 -472 137 -10 2 -83 20
-163 40 -80 20 -201 50 -270 67 -405 99 -760 222 -922 318 -225 134 -322 339
-268 566 20 88 56 150 124 217 179 175 514 278 911 279 439 2 719 -88 907
-291 61 -66 139 -188 162 -254 22 -63 77 -147 130 -201 56 -56 170 -120 236
-133 42 -9 278 -10 366 -3 35 3 64 2 64 -2 0 -5 5 -8 11 -8 5 0 8 3 6 8 -3 4
12 8 32 9 41 2 158 38 181 57 8 6 28 18 43 26 46 23 138 130 169 196 37 79 56
172 52 252 -9 158 -159 464 -325 662 -186 224 -422 399 -691 514 -21 9 -53 22
-70 30 -45 19 -213 73 -268 86 -70 17 -164 39 -196 44 -79 15 -143 26 -179 30
-176 21 -224 25 -380 32 -77 3 -145 7 -152 9 -6 2 -13 2 -15 1z"/>
</g>
</svg>
